<?xml version="1.0" encoding="UTF-8" standalone="no"?>
<svg
   xmlns:dc="http://purl.org/dc/elements/1.1/"
   xmlns:cc="http://creativecommons.org/ns#"
   xmlns:rdf="http://www.w3.org/1999/02/22-rdf-syntax-ns#"
   xmlns:svg="http://www.w3.org/2000/svg"
   xmlns="http://www.w3.org/2000/svg"
   viewBox="0 0 3726.6667 3354.6667"
   height="3354.6667"
   width="3726.6667"
   id="svg3724"
   version="1.1">
  <metadata
     id="metadata3730">
    <rdf:RDF>
      <cc:Work
         rdf:about="">
        <dc:format>image/svg+xml</dc:format>
        <dc:type
           rdf:resource="http://purl.org/dc/dcmitype/StillImage" />
        <dc:title></dc:title>
      </cc:Work>
    </rdf:RDF>
  </metadata>
  <defs
     id="defs3728" />
  <path
     id="path3734"
     d="m 389.91537,3172.9879 c -58.57788,-7.4963 -126.97219,-21.9931 -172.61484,-41.9476 -51.14085,-24.9337 -84.41244,-69.7748 -82.29988,-130.6278 -9.7677,-40.0309 17.31778,-70.6268 28.13308,-107.1736 17.66747,-36.9265 30.46821,-78.5266 54.5412,-106.8424 12.996,-21.2178 32.61455,-52.725 48.15622,-78.5845 20.55239,-35.1113 51.11971,-76.4243 68.02031,-99.9481 50.75419,-69.4919 104.69418,-148.4734 162.18689,-217.3043 25.47891,-28.4097 53.93276,-72.7584 82.90669,-105.5916 22.50102,-24.5665 48.98126,-65.3903 72.31689,-88.9366 45.55534,-59.2762 113.824,-116.8982 162.15547,-175.8162 27.36227,-20.4204 62.95185,-55.8592 82.83976,-78.4899 42.28811,-27.8952 59.38908,-67.64 105.01664,-95.2539 13.4415,-29.9277 45.5999,-46.4507 66.8509,-70.2295 20.8979,8.6707 30.8643,-27.6932 50.7303,-36.7764 37.9996,-51.5589 88.0732,-101.4818 111.0362,-161.0048 22.5977,-191.3138 72.5039,-369.9334 104.8426,-559.9777 17.27,-100.31259 32.7596,-204.94283 54.7555,-300.93405 18.4247,-88.14946 39.1515,-180.71309 49.9062,-267.8001 -48.7665,30.09245 -100.9793,67.63596 -150.4257,90.38387 C 1213.8727,592.32945 1126.725,637.317 1036.645,643.98106 971.21663,628.42107 966.81499,541.70004 908.69811,519.72 c -74.86635,15.00061 -108.8477,93.16237 -153.01825,144.97695 2.86057,32.0924 -65.29171,35.62504 -41.24,-0.22472 6.02998,-44.24232 60.29391,-63.12124 80.52534,-101.25235 38.84487,-42.47495 108.25041,-109.30206 164.80641,-51.09603 35.93422,37.376 58.70429,115.05608 127.08089,95.39011 74.857,-12.65214 134.093,-58.69704 201.5795,-96.94377 40.7519,-23.73733 81.7008,-44.71137 122.1228,-82.32529 33.6739,-16.19364 42.102,-82.51242 84.1777,-59.0768 1.0969,80.14575 -29.6325,161.03672 -40.2241,241.69006 -55.9405,255.42443 -90.556,517.98604 -150.8209,770.16694 -23.4027,108.3862 -28.4583,223.7366 -43.0826,328.9306 -21.3353,145.7075 -51.2595,301.8709 -64.3262,454.1984 -1.2634,3.8235 -13.5253,73.2247 -8.9905,59.462 -6.6479,47.2687 -10.8689,104.9477 -23.852,149.6361 -3.3723,13.9171 -2.8341,50.4081 -13.6877,75.7897 1.9822,22.6973 -10.8713,70.0547 -13.7236,99.9888 -23.163,133.7247 -24.8062,269.8955 -27.7782,405.2825 -19.9341,63.1798 -90.5147,96.1026 -136.05326,124.4792 -65.61455,29.958 -124.12669,45.6331 -189.64292,61.3351 -28.85894,3.8128 -67.01097,15.9113 -95.41933,18.9806 -94.01932,15.0363 -203.24778,23.6712 -297.21582,13.8798 z m 27.27014,-35.1815 c 69.01854,3.8867 145.73645,-2.9919 198.50257,-9.7538 63.21349,-6.1916 143.39463,-25.9343 206.65331,-38.7142 52.99558,-16.8399 105.89301,-31.2648 142.84229,-52.3334 41.10792,-23.2407 91.96652,-50.8323 87.03732,-108.4847 -6.4411,-22.1302 11.97,-151.1427 6.9753,-115.6747 11.6178,-219.672 62.3171,-427.8442 89.1984,-641.8881 5.6206,-49.5777 7.2307,-64.9219 13.5762,-115.0311 12.5266,-142.2956 53.302,-288.8948 58.8925,-426.8101 -4.8046,-14.0334 -27.1964,39.1024 -21.0739,30.9307 -97.5869,166.1405 -250.55378,277.1977 -380.62499,411.8157 -75.70387,78.481 -145.60434,154.0599 -205.49881,239.5257 -25.75116,31.541 -57.37799,70.7063 -83.14082,106.1363 -54.64154,71.7806 -113.58478,143.5464 -160.36312,212.5838 -19.64801,25.1813 -49.56566,69.1866 -70.39345,99.7701 -12.87731,21.9017 -36.40533,58.927 -50.27704,83.0245 -24.58455,43.3463 -46.8002,97.2611 -57.68507,133.297 -16.91984,41.6043 -24.74597,119.2375 32.52654,140.9285 60.46516,35.807 122.02845,42.5908 192.85277,50.6778 z m 660.03269,-528.5593 c 1.9495,-8.3915 0.1103,8.7565 0,0 z m 65.1534,-107.5125 c -3.6952,-1.303 0.06,-0.4447 0,0 z m 26.4432,-156.5497 c 7.0842,-5.6123 -6.3875,-6.1749 0,0 z M 850.25009,2003.3988 c 3.54928,-9.3443 -9.03956,10.9241 0,0 z m 1246.12411,701.1725 c -76.7662,-9.5035 -160.5803,-34.3351 -205.8505,-101.8894 -24.8483,-14.9157 -39.1479,-53.424 -54.9221,-69.6357 -33.1468,-58.6884 -42.5684,-110.1589 -49.3788,-176.3239 -7.9896,-35.4494 -2.9051,-65.3044 -3.7955,-106.0805 5.2222,-104.6855 11.6624,-202.6239 30.8134,-302.7162 11.6469,-8.6465 -3.1352,-37.4447 10.6428,-55.176 4.4187,-46.4402 23.3272,-80.6217 30.5934,-119.849 35.0198,-128.1976 84.5074,-254.137 120.1441,-381.5278 27.4258,-110.902 61.2831,-219.1005 85.7155,-333.3884 40.1151,-129.68294 70.4367,-255.77741 110.8787,-382.97241 -57.2384,26.72358 -117.879,79.97095 -189.6147,60.03812 -48.4789,-66.1416 -5.0145,-158.9653 19.0588,-229.09085 34.8402,-86.65961 71.1328,-178.35954 138.0663,-250.30827 15.5128,-38.02001 73.5443,-23.84795 29.031,10.45216 -50.7832,58.69428 -88.4742,137.89447 -115.5738,204.94289 -31.4043,72.5848 -67.4877,157.65134 -50.099,235.66778 72.2346,8.9847 121.4543,-35.31498 178.5148,-72.20143 32.9668,-76.83429 72.5558,-157.08796 120.4149,-217.71889 18.003,-25.84172 48.0774,-50.53612 63.9345,-70.64878 19.9135,-22.16687 62.4735,-71.28507 83.2324,-42.51095 28.449,62.76798 -14.1755,128.72129 -52.4548,171.00118 -16.3941,33.56345 -66.0665,63.90838 -81.8574,82.91502 -39.4426,33.68665 -94.843,62.33761 -100.0554,120.05246 -44.3662,151.11343 -89.6739,300.17376 -128.4458,454.54297 -49.2961,201.7265 -106.0257,403.1919 -174.2592,594.3439 -43.2181,124.8515 -56.0798,265.6197 -70.405,396.1361 -4.0793,59.7157 -14.7875,142.6593 -9.59,214.6191 4.2986,52.2299 20.5272,126.9799 40.668,156.1241 34.3249,88.1999 124.637,137.7834 210.977,155.5836 151.3588,17.2781 296.3252,-18.908 432.3112,-76.706 39.9035,-20.0337 88.7457,-45.8094 118.2954,-67.6854 68.2319,-35.3394 133.4812,-98.7848 191.1505,-153.69 28.7415,-30.5443 49.8854,-69.4242 84.1953,-99.7608 26.2499,-35.9608 44.9711,-61.5291 63.8628,-99.9297 21.4627,-27.9441 38.302,-74.5905 52.9304,-113.198 8.3529,-27.1865 27.1493,-83.2291 -18.175,-65.735 -75.2115,7.3042 -152.6194,37.6495 -226.1964,8.2639 -39.9277,-30.5192 -0.576,-72.6852 26.8745,-90.5177 53.9962,-29.5065 112.317,-51.9742 174.1223,-52.7313 41.1754,4.2872 66.959,41.3672 82.8265,79.5054 81.1154,-8.3824 169.8193,-45.9323 243.0794,-70.8666 39.571,-11.7973 94.2181,-47.8144 123.6013,-44.3381 8.7018,-7.0299 43.3958,-29.6091 64.2563,-35.3 30.9312,-14.7866 59.0816,-48.1518 91.3724,-47.8089 -17.7143,36.9261 -84.3078,59.0622 -111.0129,81.4922 -41.8752,11.9484 -54.6396,23.4161 -46.5392,19.9284 -27.6897,24.9779 -48.7269,24.1229 -81.1191,42.5115 -31.7643,15.2388 -68.1543,32.2922 -98.0537,43.9142 -26.2883,9.7394 -72.6901,30.3939 -109.3583,39.2268 -28.4113,13.5884 -84.1009,-1.3986 -67.595,46.677 5.0419,66.0312 -29.8111,114.0728 -55.6681,166.2901 -39.833,71.2764 -75.3776,125.7813 -135.0819,184.0466 -54.678,56.3028 -121.2378,118.1058 -189.4315,171.1926 -39.0688,20.4319 -77.5745,44.7706 -111.8081,69.0137 -71.6437,42.4987 -155.0764,74.7611 -240.3741,94.2949 -50.751,12.9753 -95.0866,14.5349 -146.9768,25.2133 -29.2912,1.3093 -66.4816,2.8435 -97.8718,2.316 z m 764.171,-754.9072 c 57.6803,-2.7707 123.1283,-14.2591 169.1434,-21.9867 -0.3457,-51.3225 -55.6124,-78.7806 -100.0614,-54.7153 -44.0157,15.6803 -105.4718,24.0626 -125.2436,69.3946 17.5882,4.4968 36.8196,9.5712 56.1616,7.3074 z M 2260.8465,568.02104 c 40.0349,-22.9269 52.266,-63.66163 89.93,-90.19533 35.5671,-36.26894 76.3085,-94.30055 67.0889,-143.62461 -73.3657,49.27597 -121.6794,135.75122 -156.1084,210.15079 -3.3753,5.44449 -13.5473,42.26269 -0.9105,23.66915 z M 1794.408,2065.8066 c 1.9496,-8.3915 0.1106,8.7564 0,0 z"
     style="fill:#000000;stroke-width:1.33333337" />
</svg>
